<svg class="icon-accent" width="512" height="512" viewBox="0 0 512 512" fill="currentColor" xmlns="http://www.w3.org/2000/svg">
<path d="M198.963 39.8002C75.3682 51.8983 28.7476 155.892 6.90527 226.494C30.2517 95.005 71.5932 45.7098 198.963 4.39316C287.277 -8.46328 343.634 8.5051 389.948 34.4359C436.883 60.7141 473.388 96.5512 504.754 173.919C507.375 181.566 507.296 193.01 496.17 207.181C481.063 220.027 451.672 220.6 441.45 197.524C399.599 83.5593 327.142 27.7417 198.963 39.8002Z"/>
<path d="M313.037 472.199C436.632 460.101 483.252 356.108 505.095 285.506C481.748 416.995 440.407 466.29 313.037 507.607C224.723 520.463 168.366 503.495 122.052 477.564C75.1169 451.286 38.6116 415.448 7.24609 338.08C4.62543 330.434 4.70352 318.989 15.8297 304.819C30.9373 291.973 60.3277 291.4 70.5501 314.476C112.401 428.44 184.858 484.258 313.037 472.199Z"/>
</svg>
