<svg width="512" height="512" viewBox="0 0 512 512" fill="currentColor" xmlns="http://www.w3.org/2000/svg">
<path class="icon-accent-2" d="M24.6675 452.437V510.797C123.337 495.756 118.524 424.16 162.444 413.932V348.353C98.0682 355.572 87.2386 452.437 24.6675 452.437Z" fill="currentColor"/>
<path class="icon-accent" d="M187.112 348.353V182.9H380.24V348.353H324.287V276.757C324.287 226.82 243.065 222.609 243.065 276.757V348.353H187.112Z" fill="currentColor"/>
<path class="icon-accent-3" d="M135.972 155.224L280.367 49.9365L328.622 84.832L338.726 92.1387L425.965 155.224H135.972Z" fill="currentColor"/>
<path fill-rule="evenodd" clip-rule="evenodd" d="M187.112 376.63V512H216.592V459.657H349.556V512H378.435V473.495L416.338 512H487.333V465.072L399.492 376.63H187.112ZM349.556 426.566H216.592V401.297H349.556V426.566ZM406.712 421.753L378.435 397.687V436.193L397.086 459.657C400.696 461.462 406.712 464.47 406.712 464.47V421.753ZM461.462 483.723H430.778V450.632H435.591L459.055 473.495L461.462 483.723Z" fill="currentColor"/>
<path class="icon-accent-3" d="M269.537 348.353V285.781C269.537 259.911 297.213 261.716 297.213 285.781V348.353H269.537Z" fill="currentColor"/>
<path d="M328.622 0V84.832L338.726 92.1387V56.5546V5.41481V0H328.622Z" fill="currentColor"/>
<path class="icon-accent" d="M409.72 5.41481H338.726V56.5546H409.72L413.33 52.3431V9.02468L409.72 5.41481Z" fill="currentColor"/>
</svg>
