<svg class="icon-error" width="512" height="512" viewBox="0 0 512 512" fill="currentColor" xmlns="http://www.w3.org/2000/svg">
<path fill-rule="evenodd" clip-rule="evenodd" d="M216.723 64.5371L2.57057 421.459C-5.0777 435.735 6.64971 470.918 41.322 470.918H472.177C508.379 470.918 519.087 435.735 508.379 416.36L295.246 64.5371C285.31 50.8802 270.117 41.0912 255.475 41.0823C239.246 41.0724 223.693 52.2068 216.723 64.5371ZM287.598 392.395C287.598 410.136 273.216 424.518 255.475 424.518C237.734 424.518 223.352 410.136 223.352 392.395C223.352 374.654 237.734 360.272 255.475 360.272C273.216 360.272 287.598 374.654 287.598 392.395ZM242.728 154.277C232.59 154.277 224.372 162.496 224.372 172.633V309.283C224.372 319.421 232.59 327.639 242.728 327.639H269.242C279.38 327.639 287.598 319.421 287.598 309.283V172.633C287.598 162.496 279.38 154.277 269.242 154.277H242.728Z"/>
</svg>
